<?xml version="1.0" standalone="no"?>
<svg xmlns:xlink="http://www.w3.org/1999/xlink" id="wave" style="transform:rotate(0deg); transition: 0.3s" viewBox="0 0 1440 100" version="1.1" xmlns="http://www.w3.org/2000/svg"><defs><linearGradient id="sw-gradient-0" x1="0" x2="0" y1="1" y2="0"><stop stop-color="rgba(136.977, 49.849, 49.849, 1)" offset="0%"/><stop stop-color="rgba(216.665, 0.551, 0.551, 1)" offset="100%"/></linearGradient></defs><path style="transform:translate(0, 0px); opacity:1" fill="url(#sw-gradient-0)" d="M0,60L26.7,63.3C53.3,67,107,73,160,66.7C213.3,60,267,40,320,28.3C373.3,17,427,13,480,20C533.3,27,587,43,640,41.7C693.3,40,747,20,800,10C853.3,0,907,0,960,10C1013.3,20,1067,40,1120,50C1173.3,60,1227,60,1280,55C1333.3,50,1387,40,1440,33.3C1493.3,27,1547,23,1600,26.7C1653.3,30,1707,40,1760,41.7C1813.3,43,1867,37,1920,43.3C1973.3,50,2027,70,2080,68.3C2133.3,67,2187,43,2240,35C2293.3,27,2347,33,2400,45C2453.3,57,2507,73,2560,73.3C2613.3,73,2667,57,2720,53.3C2773.3,50,2827,60,2880,65C2933.3,70,2987,70,3040,66.7C3093.3,63,3147,57,3200,60C3253.3,63,3307,77,3360,83.3C3413.3,90,3467,90,3520,81.7C3573.3,73,3627,57,3680,43.3C3733.3,30,3787,20,3813,15L3840,10L3840,100L3813.3,100C3786.7,100,3733,100,3680,100C3626.7,100,3573,100,3520,100C3466.7,100,3413,100,3360,100C3306.7,100,3253,100,3200,100C3146.7,100,3093,100,3040,100C2986.7,100,2933,100,2880,100C2826.7,100,2773,100,2720,100C2666.7,100,2613,100,2560,100C2506.7,100,2453,100,2400,100C2346.7,100,2293,100,2240,100C2186.7,100,2133,100,2080,100C2026.7,100,1973,100,1920,100C1866.7,100,1813,100,1760,100C1706.7,100,1653,100,1600,100C1546.7,100,1493,100,1440,100C1386.7,100,1333,100,1280,100C1226.7,100,1173,100,1120,100C1066.7,100,1013,100,960,100C906.7,100,853,100,800,100C746.7,100,693,100,640,100C586.7,100,533,100,480,100C426.7,100,373,100,320,100C266.7,100,213,100,160,100C106.7,100,53,100,27,100L0,100Z"/></svg>